<?xml version="1.0" encoding="UTF-8"?>
<svg version="1.1" xmlns="http://www.w3.org/2000/svg" width="768" height="768">
<path d="M0 0 C13.49274881 10.53974734 26.99084896 20.67202963 41.54907227 29.70092773 C66.30391403 45.05619653 83.81015324 61.93679249 91.29516602 91.04858398 C95.6334016 109.99646589 95.59972762 133.60898303 85.09204102 150.52905273 C81.52018875 155.90817687 78.28256368 160.65639106 73.09204102 164.52905273 C73.09204102 165.18905273 73.09204102 165.84905273 73.09204102 166.52905273 C74.99833699 168.11319947 76.89909686 169.58106191 78.90454102 171.02905273 C79.45174805 171.4325293 79.99895508 171.83600586 80.56274414 172.25170898 C83.03770065 174.06967704 85.53659292 175.82542067 88.09204102 177.52905273 C88.48975708 176.49240479 88.48975708 176.49240479 88.89550781 175.43481445 C95.64411053 157.90541595 102.83109624 140.622334 110.38208008 123.42553711 C113.0899054 117.25825648 115.78322029 111.08467769 118.46929932 104.90789795 C119.32436752 102.94463169 120.18338767 100.98312926 121.04272461 99.02172852 C121.55915527 97.83562988 122.07558594 96.64953125 122.60766602 95.42749023 C123.06431641 94.38254395 123.5209668 93.33759766 123.99145508 92.26098633 C124.90379515 89.99632676 125.70727615 87.93742108 126.09204102 85.52905273 C124.97490163 83.99256266 124.97490163 83.99256266 123.21704102 82.65405273 C106.4631454 66.97240644 101.85564107 43.53027929 101.09204102 21.52905273 C100.58283575 5.43666883 100.58283575 5.43666883 103.09204102 1.52905273 C105.96704102 1.40405273 105.96704102 1.40405273 109.09204102 1.52905273 C111.09204102 3.52905273 111.09204102 3.52905273 111.09204102 7.46655273 C111.07915039 8.27350586 111.06625977 9.08045898 111.05297852 9.91186523 C111.20167317 19.8744073 114.28331473 29.33238504 120.43188477 37.25561523 C125.05023316 41.61961981 132.2979433 44.33341957 138.59204102 44.65795898 C143.33160852 44.2656637 146.92272345 42.8679382 151.09204102 40.52905273 C151.75204102 40.52905273 152.41204102 40.52905273 153.09204102 40.52905273 C153.31118164 39.85874023 153.53032227 39.18842773 153.75610352 38.49780273 C155.51099154 34.59805158 157.88856241 31.42432156 160.46704102 28.02905273 C160.99942383 27.32635254 161.53180664 26.62365234 162.08032227 25.8996582 C174.09921756 10.26448941 191.49410644 -10.47976635 212.27172852 -13.29125977 C213.20243164 -13.35055664 214.13313477 -13.40985352 215.09204102 -13.47094727 C215.72013672 -13.511875 216.34823242 -13.55280273 216.99536133 -13.5949707 C232.83647743 -14.48442548 243.70696729 -10.37900624 256.09204102 -0.47094727 C273.37735656 15.12657653 281.26154754 41.97554357 283.09204102 64.52905273 C283.23159536 68.24269674 283.25210556 71.95369346 283.26782227 75.66967773 C283.29102187 77.81421879 283.31513926 79.95875007 283.34008789 82.10327148 C283.37509638 85.43813646 283.40451515 88.77264003 283.41796875 92.10766602 C283.0934142 115.08712583 283.0934142 115.08712583 294.09204102 134.52905273 C297.83930772 137.50764935 301.30192524 138.44195972 306.09204102 138.52905273 C308.54048596 136.69271903 309.93426131 134.74751694 311.71704102 132.27905273 C312.17079102 131.70155273 312.62454102 131.12405273 313.09204102 130.52905273 C313.75204102 130.52905273 314.41204102 130.52905273 315.09204102 130.52905273 C315.26655647 135.06376959 315.39277777 139.59648712 315.4765625 144.13378906 C315.51152344 145.67319833 315.55911264 147.21237928 315.62011719 148.75097656 C316.1767752 163.16327361 316.1767752 163.16327361 311.74438477 168.91967773 C309.88867187 170.88549805 309.88867187 170.88549805 308.09204102 172.52905273 C307.60678955 173.02244141 307.12153809 173.51583008 306.62158203 174.02416992 C299.1168262 181.06322128 289.6117701 182.77218421 279.70532227 182.69702148 C275.7096343 182.44019849 271.95364258 181.53769185 268.09204102 180.52905273 C268.00422363 181.06675293 267.91640625 181.60445312 267.82592773 182.15844727 C266.32846219 190.4566892 263.7786214 198.3896217 261.21704102 206.40405273 C260.72379382 207.95605413 260.23054841 209.50805609 259.73730469 211.06005859 C258.45174762 215.0950193 257.15599909 219.12663036 255.85626221 223.15704346 C255.12169654 225.43700715 254.39047442 227.71801848 253.65991211 229.99926758 C247.97460761 247.71411005 241.79551222 265.1734253 235.09204102 282.52905273 C223.77265031 311.86758325 214.32897823 341.49153241 205.95921326 371.79580688 C191.42507396 424.37754166 172.55855612 486.74682859 134.08422852 527.41186523 C132.24820386 529.36309144 130.58625615 531.38323399 128.90454102 533.46655273 C115.19084535 549.18480252 92.71315678 562.90065069 71.80834961 564.72875977 C63.38137127 565.14531568 55.22670607 564.93932386 47.09204102 562.52905273 C46.98891602 563.39272461 46.88579102 564.25639648 46.77954102 565.14624023 C44.6141103 575.80114363 36.70028352 585.21434899 30.09204102 593.52905273 C29.08463867 594.8090918 29.08463867 594.8090918 28.05688477 596.11499023 C26.75293904 597.75853216 25.44048104 599.39535841 24.11938477 601.02514648 C22.70130118 602.77657534 21.29886756 604.54073909 19.90844727 606.31420898 C5.82837978 624.05460597 -15.15697856 635.4755642 -37.87280273 638.25561523 C-42.56203945 638.66281717 -47.20650766 638.69282029 -51.90795898 638.52905273 C-52.63466797 638.50697754 -53.36137695 638.48490234 -54.11010742 638.4621582 C-70.16361486 637.77063364 -83.21081892 631.08472049 -97.11621094 623.58276367 C-130.59031988 605.72364392 -162.35135317 593.41017953 -199.90795898 604.52905273 C-200.92519043 604.8284375 -201.94242188 605.12782227 -202.99047852 605.4362793 C-228.8106087 613.10459392 -253.99099166 622.23382169 -278.95483398 632.33862305 C-283.73951122 634.26736695 -288.53624797 636.16237918 -293.34545898 638.02905273 C-294.16715576 638.35534668 -294.98885254 638.68164062 -295.83544922 639.01782227 C-310.52649465 644.67853679 -328.92430581 646.51556978 -343.92358398 640.97827148 C-358.59536944 633.85362174 -371.32147727 621.573795 -377.19311523 606.15405273 C-379.64807853 598.41079933 -381.05103039 591.33529436 -380.93530273 583.18920898 C-380.92265778 581.78231039 -380.91029672 580.37540922 -380.89819336 578.96850586 C-380.87341819 576.77872436 -380.84542128 574.58908146 -380.81201172 572.39941406 C-380.78158399 570.26683742 -380.76397078 568.134435 -380.74780273 566.00170898 C-380.73096436 564.73593018 -380.71412598 563.47015137 -380.69677734 562.16601562 C-381.07033917 555.73254677 -382.49451282 551.3503806 -386.97045898 546.71655273 C-387.77483398 545.86577148 -388.57920898 545.01499023 -389.40795898 544.13842773 C-390.64545898 542.84678711 -390.64545898 542.84678711 -391.90795898 541.52905273 C-394.19226634 539.01322774 -396.45724512 536.48139823 -398.71655273 533.94311523 C-400.11188786 532.40600809 -401.53904773 530.89678878 -403.00561523 529.42749023 C-419.18064858 512.78497037 -421.05338923 488.2130796 -421.07592773 466.22827148 C-421.08011719 464.97026733 -421.08430664 463.71226318 -421.08862305 462.4161377 C-421.0983753 458.34957411 -421.09854382 454.28312069 -421.09545898 450.21655273 C-421.09533939 449.52311893 -421.0952198 448.82968513 -421.09509659 448.11523819 C-421.08814486 416.3155834 -419.65888818 384.83435861 -416.55114746 353.18920898 C-415.99213299 347.47440372 -415.47545127 341.75632926 -414.96655273 336.03686523 C-414.71822974 333.27372632 -414.46926493 330.51064607 -414.22003174 327.74758911 C-414.05431283 325.90095198 -413.89019653 324.0541703 -413.72772217 322.20724487 C-412.89352656 312.75719862 -411.96188679 303.36692446 -410.48217773 293.99389648 C-410.2587383 292.52002723 -410.03534823 291.04615048 -409.81201172 289.57226562 C-409.39964934 286.86960716 -408.93091798 284.20013892 -408.42382812 281.51123047 C-407.2935849 274.91164558 -407.2935849 274.91164558 -409.53125 268.84155273 C-411.61115525 266.45010991 -411.61115525 266.45010991 -413.87597656 264.47387695 C-419.20352578 259.3748433 -420.75867904 251.78335551 -421.08496094 244.67041016 C-421.11136984 243.15853993 -421.13141672 241.64654969 -421.14624023 240.13452148 C-421.15603409 239.31837875 -421.16582794 238.50223602 -421.17591858 237.66136169 C-421.34715125 219.66488283 -421.37452416 202.09125147 -416.90795898 184.52905273 C-416.71492188 183.76189941 -416.52188477 182.99474609 -416.32299805 182.2043457 C-408.46584328 152.58841996 -390.95012486 124.0861132 -370.07983398 101.85327148 C-368.23440221 99.87839396 -366.49725905 97.86662782 -364.78295898 95.77905273 C-362.14142689 92.66529144 -359.20694034 90.04578641 -356.09936523 87.40405273 C-353.71934815 85.36767448 -351.40881287 83.26576722 -349.09545898 81.15405273 C-331.43737626 65.28311735 -312.06775253 52.00251317 -291.90795898 39.52905273 C-295.86463148 35.39635806 -300.12310426 31.83969651 -304.59545898 28.27905273 C-322.05691183 14.23114704 -322.05691183 14.23114704 -323.90795898 10.52905273 C-324.53816501 3.09262162 -322.68366201 -0.98935425 -318.09545898 -6.74438477 C-312.04616809 -13.79447747 -305.12287244 -19.66617754 -297.90795898 -25.47094727 C-297.20026367 -26.05489258 -296.49256836 -26.63883789 -295.76342773 -27.24047852 C-293.24696905 -28.90928796 -290.89773977 -29.26041776 -287.90405273 -29.1237793 C-280.55971938 -26.72177986 -276.03661656 -12.25905464 -272.78295898 -5.84594727 C-271.57441117 -3.47752658 -270.36245135 -1.11088838 -269.15014648 1.25561523 C-268.59037109 2.35035156 -268.0305957 3.44508789 -267.45385742 4.57299805 C-266.18348076 7.0022022 -264.86763762 9.3779456 -263.47827148 11.73999023 C-261.90795898 14.52905273 -261.90795898 14.52905273 -261.90795898 16.52905273 C-256.43068395 13.01112812 -251.14202947 9.27018201 -245.90795898 5.40405273 C-238.32570173 -0.18965207 -230.67020585 -5.66883551 -222.93530273 -11.04956055 C-221.06865978 -12.35827867 -219.22154323 -13.69036287 -217.37670898 -15.02954102 C-149.57239704 -63.33099979 -62.35777523 -48.71388601 0 0 Z " fill="#C1A202" transform="translate(452.907958984375,94.470947265625)"/>
<path d="M0 0 C13.49274881 10.53974734 26.99084896 20.67202963 41.54907227 29.70092773 C66.30391403 45.05619653 83.81015324 61.93679249 91.29516602 91.04858398 C95.6334016 109.99646589 95.59972762 133.60898303 85.09204102 150.52905273 C81.52018875 155.90817687 78.28256368 160.65639106 73.09204102 164.52905273 C73.09204102 165.18905273 73.09204102 165.84905273 73.09204102 166.52905273 C74.99833699 168.11319947 76.89909686 169.58106191 78.90454102 171.02905273 C79.45174805 171.4325293 79.99895508 171.83600586 80.56274414 172.25170898 C83.03770065 174.06967704 85.53659292 175.82542067 88.09204102 177.52905273 C88.48975708 176.49240479 88.48975708 176.49240479 88.89550781 175.43481445 C95.64411053 157.90541595 102.83109624 140.622334 110.38208008 123.42553711 C113.0899054 117.25825648 115.78322029 111.08467769 118.46929932 104.90789795 C119.32436752 102.94463169 120.18338767 100.98312926 121.04272461 99.02172852 C121.55915527 97.83562988 122.07558594 96.64953125 122.60766602 95.42749023 C123.06431641 94.38254395 123.5209668 93.33759766 123.99145508 92.26098633 C124.90379515 89.99632676 125.70727615 87.93742108 126.09204102 85.52905273 C124.97490163 83.99256266 124.97490163 83.99256266 123.21704102 82.65405273 C106.4631454 66.97240644 101.85564107 43.53027929 101.09204102 21.52905273 C100.58283575 5.43666883 100.58283575 5.43666883 103.09204102 1.52905273 C105.96704102 1.40405273 105.96704102 1.40405273 109.09204102 1.52905273 C111.09204102 3.52905273 111.09204102 3.52905273 111.09204102 7.46655273 C111.07915039 8.27350586 111.06625977 9.08045898 111.05297852 9.91186523 C111.20167317 19.8744073 114.28331473 29.33238504 120.43188477 37.25561523 C125.05023316 41.61961981 132.2979433 44.33341957 138.59204102 44.65795898 C143.33160852 44.2656637 146.92272345 42.8679382 151.09204102 40.52905273 C151.75204102 40.52905273 152.41204102 40.52905273 153.09204102 40.52905273 C153.31118164 39.85874023 153.53032227 39.18842773 153.75610352 38.49780273 C155.51099154 34.59805158 157.88856241 31.42432156 160.46704102 28.02905273 C160.99942383 27.32635254 161.53180664 26.62365234 162.08032227 25.8996582 C174.09921756 10.26448941 191.49410644 -10.47976635 212.27172852 -13.29125977 C213.20243164 -13.35055664 214.13313477 -13.40985352 215.09204102 -13.47094727 C215.72013672 -13.511875 216.34823242 -13.55280273 216.99536133 -13.5949707 C232.83647743 -14.48442548 243.70696729 -10.37900624 256.09204102 -0.47094727 C273.37735656 15.12657653 281.26154754 41.97554357 283.09204102 64.52905273 C283.23159536 68.24269674 283.25210556 71.95369346 283.26782227 75.66967773 C283.29102187 77.81421879 283.31513926 79.95875007 283.34008789 82.10327148 C283.37509638 85.43813646 283.40451515 88.77264003 283.41796875 92.10766602 C283.0934142 115.08712583 283.0934142 115.08712583 294.09204102 134.52905273 C297.83930772 137.50764935 301.30192524 138.44195972 306.09204102 138.52905273 C308.54048596 136.69271903 309.93426131 134.74751694 311.71704102 132.27905273 C312.17079102 131.70155273 312.62454102 131.12405273 313.09204102 130.52905273 C313.75204102 130.52905273 314.41204102 130.52905273 315.09204102 130.52905273 C315.26655647 135.06376959 315.39277777 139.59648712 315.4765625 144.13378906 C315.51152344 145.67319833 315.55911264 147.21237928 315.62011719 148.75097656 C316.1767752 163.16327361 316.1767752 163.16327361 311.74438477 168.91967773 C309.88867187 170.88549805 309.88867187 170.88549805 308.09204102 172.52905273 C307.60678955 173.02244141 307.12153809 173.51583008 306.62158203 174.02416992 C299.1168262 181.06322128 289.6117701 182.77218421 279.70532227 182.69702148 C275.7096343 182.44019849 271.95364258 181.53769185 268.09204102 180.52905273 C268.00422363 181.06675293 267.91640625 181.60445312 267.82592773 182.15844727 C266.32846219 190.4566892 263.7786214 198.3896217 261.21704102 206.40405273 C260.72379382 207.95605413 260.23054841 209.50805609 259.73730469 211.06005859 C258.45174762 215.0950193 257.15599909 219.12663036 255.85626221 223.15704346 C255.12169654 225.43700715 254.39047442 227.71801848 253.65991211 229.99926758 C247.97460761 247.71411005 241.79551222 265.1734253 235.09204102 282.52905273 C223.77265031 311.86758325 214.32897823 341.49153241 205.95921326 371.79580688 C191.42507396 424.37754166 172.55855612 486.74682859 134.08422852 527.41186523 C132.24820386 529.36309144 130.58625615 531.38323399 128.90454102 533.46655273 C115.19084535 549.18480252 92.71315678 562.90065069 71.80834961 564.72875977 C63.38137127 565.14531568 55.22670607 564.93932386 47.09204102 562.52905273 C46.98891602 563.39272461 46.88579102 564.25639648 46.77954102 565.14624023 C44.6141103 575.80114363 36.70028352 585.21434899 30.09204102 593.52905273 C29.08463867 594.8090918 29.08463867 594.8090918 28.05688477 596.11499023 C26.75293904 597.75853216 25.44048104 599.39535841 24.11938477 601.02514648 C22.70130118 602.77657534 21.29886756 604.54073909 19.90844727 606.31420898 C5.82837978 624.05460597 -15.15697856 635.4755642 -37.87280273 638.25561523 C-42.56203945 638.66281717 -47.20650766 638.69282029 -51.90795898 638.52905273 C-52.63466797 638.50697754 -53.36137695 638.48490234 -54.11010742 638.4621582 C-70.16361486 637.77063364 -83.21081892 631.08472049 -97.11621094 623.58276367 C-130.59031988 605.72364392 -162.35135317 593.41017953 -199.90795898 604.52905273 C-200.92519043 604.8284375 -201.94242188 605.12782227 -202.99047852 605.4362793 C-228.8106087 613.10459392 -253.99099166 622.23382169 -278.95483398 632.33862305 C-283.73951122 634.26736695 -288.53624797 636.16237918 -293.34545898 638.02905273 C-294.16715576 638.35534668 -294.98885254 638.68164062 -295.83544922 639.01782227 C-310.52649465 644.67853679 -328.92430581 646.51556978 -343.92358398 640.97827148 C-358.59536944 633.85362174 -371.32147727 621.573795 -377.19311523 606.15405273 C-379.64807853 598.41079933 -381.05103039 591.33529436 -380.93530273 583.18920898 C-380.92265778 581.78231039 -380.91029672 580.37540922 -380.89819336 578.96850586 C-380.87341819 576.77872436 -380.84542128 574.58908146 -380.81201172 572.39941406 C-380.78158399 570.26683742 -380.76397078 568.134435 -380.74780273 566.00170898 C-380.73096436 564.73593018 -380.71412598 563.47015137 -380.69677734 562.16601562 C-381.07033917 555.73254677 -382.49451282 551.3503806 -386.97045898 546.71655273 C-387.77483398 545.86577148 -388.57920898 545.01499023 -389.40795898 544.13842773 C-390.64545898 542.84678711 -390.64545898 542.84678711 -391.90795898 541.52905273 C-394.19226634 539.01322774 -396.45724512 536.48139823 -398.71655273 533.94311523 C-400.11188786 532.40600809 -401.53904773 530.89678878 -403.00561523 529.42749023 C-419.18064858 512.78497037 -421.05338923 488.2130796 -421.07592773 466.22827148 C-421.08011719 464.97026733 -421.08430664 463.71226318 -421.08862305 462.4161377 C-421.0983753 458.34957411 -421.09854382 454.28312069 -421.09545898 450.21655273 C-421.09533939 449.52311893 -421.0952198 448.82968513 -421.09509659 448.11523819 C-421.08814486 416.3155834 -419.65888818 384.83435861 -416.55114746 353.18920898 C-415.99213299 347.47440372 -415.47545127 341.75632926 -414.96655273 336.03686523 C-414.71822974 333.27372632 -414.46926493 330.51064607 -414.22003174 327.74758911 C-414.05431283 325.90095198 -413.89019653 324.0541703 -413.72772217 322.20724487 C-412.89352656 312.75719862 -411.96188679 303.36692446 -410.48217773 293.99389648 C-410.2587383 292.52002723 -410.03534823 291.04615048 -409.81201172 289.57226562 C-409.39964934 286.86960716 -408.93091798 284.20013892 -408.42382812 281.51123047 C-407.2935849 274.91164558 -407.2935849 274.91164558 -409.53125 268.84155273 C-411.61115525 266.45010991 -411.61115525 266.45010991 -413.87597656 264.47387695 C-419.20352578 259.3748433 -420.75867904 251.78335551 -421.08496094 244.67041016 C-421.11136984 243.15853993 -421.13141672 241.64654969 -421.14624023 240.13452148 C-421.15603409 239.31837875 -421.16582794 238.50223602 -421.17591858 237.66136169 C-421.34715125 219.66488283 -421.37452416 202.09125147 -416.90795898 184.52905273 C-416.71492188 183.76189941 -416.52188477 182.99474609 -416.32299805 182.2043457 C-408.46584328 152.58841996 -390.95012486 124.0861132 -370.07983398 101.85327148 C-368.23440221 99.87839396 -366.49725905 97.86662782 -364.78295898 95.77905273 C-362.14142689 92.66529144 -359.20694034 90.04578641 -356.09936523 87.40405273 C-353.71934815 85.36767448 -351.40881287 83.26576722 -349.09545898 81.15405273 C-331.43737626 65.28311735 -312.06775253 52.00251317 -291.90795898 39.52905273 C-295.86463148 35.39635806 -300.12310426 31.83969651 -304.59545898 28.27905273 C-322.05691183 14.23114704 -322.05691183 14.23114704 -323.90795898 10.52905273 C-324.53816501 3.09262162 -322.68366201 -0.98935425 -318.09545898 -6.74438477 C-312.04616809 -13.79447747 -305.12287244 -19.66617754 -297.90795898 -25.47094727 C-297.20026367 -26.05489258 -296.49256836 -26.63883789 -295.76342773 -27.24047852 C-293.24696905 -28.90928796 -290.89773977 -29.26041776 -287.90405273 -29.1237793 C-280.55971938 -26.72177986 -276.03661656 -12.25905464 -272.78295898 -5.84594727 C-271.57441117 -3.47752658 -270.36245135 -1.11088838 -269.15014648 1.25561523 C-268.59037109 2.35035156 -268.0305957 3.44508789 -267.45385742 4.57299805 C-266.18348076 7.0022022 -264.86763762 9.3779456 -263.47827148 11.73999023 C-261.90795898 14.52905273 -261.90795898 14.52905273 -261.90795898 16.52905273 C-256.43068395 13.01112812 -251.14202947 9.27018201 -245.90795898 5.40405273 C-238.32570173 -0.18965207 -230.67020585 -5.66883551 -222.93530273 -11.04956055 C-221.06865978 -12.35827867 -219.22154323 -13.69036287 -217.37670898 -15.02954102 C-149.57239704 -63.33099979 -62.35777523 -48.71388601 0 0 Z M53.45141602 175.70483398 C43.34430593 180.43821986 31.26941578 181.24961653 20.28344727 182.21264648 C19.5755411 182.27606169 18.86763493 182.33947689 18.13827705 182.40481377 C-2.77863459 184.21578778 -23.76901942 183.79367436 -44.74261475 183.61846924 C-54.30935466 183.53869364 -63.87610877 183.475688 -73.44311523 183.43920898 C-74.48810118 183.43513031 -75.53308712 183.43105164 -76.6097393 183.42684937 C-92.8862255 183.37990984 -109.12272026 183.75462237 -125.38452148 184.43920898 C-126.38820833 184.48129045 -127.39189518 184.52337193 -128.42599678 184.56672859 C-211.71696899 187.22855438 -211.71696899 187.22855438 -281.80639648 227.47436523 C-306.75063313 251.86222485 -342.59201358 273.88699535 -378.19311523 273.69702148 C-382.89878478 273.48425199 -387.43769526 272.80738562 -392.06811523 271.96655273 C-394.74230171 271.55457352 -397.2096078 271.49728407 -399.90795898 271.52905273 C-405.31343811 303.55782012 -408.20148093 335.83027681 -410.58764648 368.20483398 C-410.88290388 372.20948475 -411.19084129 376.21308092 -411.50170898 380.21655273 C-411.67910698 382.52902862 -411.85621186 384.84152701 -412.03295898 387.15405273 C-412.10853027 388.12810059 -412.18410156 389.10214844 -412.26196289 390.10571289 C-412.49619192 393.24586228 -412.70713023 396.38658202 -412.90795898 399.52905273 C-412.97311203 400.530186 -412.97311203 400.530186 -413.0395813 401.55154419 C-413.94294006 415.85023478 -414.09419716 430.13263959 -414.09326172 444.45703125 C-414.09546181 448.22138565 -414.11373584 451.98545239 -414.13256836 455.74975586 C-414.32278743 479.14966238 -414.32278743 479.14966238 -409.65795898 501.96655273 C-409.09334961 503.78993164 -409.09334961 503.78993164 -408.51733398 505.65014648 C-405.13637398 514.52938834 -399.57056342 521.46028552 -392.97045898 528.15405273 C-391.60579389 529.5615665 -390.24250353 530.97041451 -388.88061523 532.38061523 C-388.2209375 533.06309326 -387.56125977 533.74557129 -386.8815918 534.44873047 C-378.38065331 543.40920757 -373.64076569 549.96848845 -373.95092773 562.70874023 C-373.97335711 564.12799645 -373.9948079 565.5472684 -374.01538086 566.96655273 C-374.05204228 569.16915121 -374.09455248 571.37091118 -374.15478516 573.57299805 C-374.65636034 592.87378623 -369.98762228 607.59765006 -356.64868164 621.90209961 C-347.22019329 631.58274858 -337.04428041 636.56007816 -323.53295898 636.90405273 C-309.06674414 636.55651604 -296.034617 630.89113343 -282.83764648 625.44311523 C-194.50500442 589.15050978 -194.50500442 589.15050978 -154.72045898 593.65405273 C-153.81263672 593.74638184 -152.90481445 593.83871094 -151.96948242 593.93383789 C-136.09152038 595.94149206 -121.43593341 603.32124546 -107.09545898 610.02905273 C-105.49224785 610.77059681 -103.88873275 611.51148407 -102.28491211 612.25170898 C-92.29586872 616.87531253 -82.38384007 621.61996763 -72.65795898 626.77905273 C-57.09033851 634.4201862 -38.62476888 631.95904047 -22.72045898 626.77905273 C-3.98591072 620.31832392 8.02164466 608.75510827 20.09204102 593.52905273 C20.59268066 592.90337402 21.09332031 592.27769531 21.60913086 591.63305664 C45.46746727 561.6100074 47.87378292 530.2441963 50.15454102 492.84155273 C50.32599267 490.12115128 50.50005238 487.40091789 50.67382812 484.68066406 C51.49315304 471.78599939 52.2517591 458.88898032 52.92895508 445.98608398 C56.71922639 373.90186736 56.71922639 373.90186736 75.77954102 354.84155273 C79.18033347 352.19649194 83.03237652 350.61747549 86.95922852 348.90014648 C99.3614381 343.47224678 109.59796422 338.19613184 117.09204102 326.52905273 C117.78942383 325.4990918 118.48680664 324.46913086 119.20532227 323.40795898 C132.06010681 304.02303523 140.94478328 282.85712008 136.32641602 259.18530273 C135.44316605 255.23111711 134.3166857 251.3907372 133.09204102 247.52905273 C132.81489258 246.64088867 132.53774414 245.75272461 132.25219727 244.83764648 C127.82506598 232.45391979 119.72937732 221.27812539 111.09204102 211.52905273 C110.24899414 210.56483398 109.40594727 209.60061523 108.53735352 208.60717773 C95.77653432 194.22025489 81.02162879 181.31185724 65.09204102 170.52905273 C60.96887877 170.52905273 56.99727158 173.75624746 53.45141602 175.70483398 Z " fill="#010100" transform="translate(452.907958984375,94.470947265625)"/>
<path d="M0 0 C3.21002521 1.93001516 6.15538817 4.1039622 9.0703125 6.4453125 C9.6802002 6.92967773 10.29008789 7.41404297 10.91845703 7.91308594 C16.08142992 12.06221434 20.96826588 16.46132103 25.796875 20.9921875 C28.82957972 23.80639764 31.97012716 26.46091385 35.1796875 29.0703125 C36.5078125 30.5078125 36.5078125 30.5078125 36.5078125 33.5078125 C35.43466797 33.81912109 35.43466797 33.81912109 34.33984375 34.13671875 C3.17985435 43.77091987 -12.87072721 70.18655292 -27.5546875 97.5703125 C-36.44753221 114.61567482 -43.42379774 132.60778906 -49.67602539 150.76416016 C-50.01883545 151.75206543 -50.36164551 152.7399707 -50.71484375 153.7578125 C-51.01140869 154.62921875 -51.30797363 155.500625 -51.61352539 156.3984375 C-52.4921875 158.5078125 -52.4921875 158.5078125 -54.4921875 160.5078125 C-60.28223565 156.6267448 -64.74484589 152.21374803 -69.21875 146.875 C-73.93568836 141.96354872 -79.6231019 139.33670139 -85.8046875 136.7578125 C-86.51302734 136.44199219 -87.22136719 136.12617188 -87.95117188 135.80078125 C-93.95206174 133.28726256 -99.74978726 132.27939105 -106.05078125 134.34765625 C-106.67082031 134.70988281 -107.29085938 135.07210937 -107.9296875 135.4453125 C-108.56777344 135.80496094 -109.20585937 136.16460937 -109.86328125 136.53515625 C-110.66958984 137.01662109 -110.66958984 137.01662109 -111.4921875 137.5078125 C-114.20098085 138.86220918 -116.50152018 138.57282701 -119.4921875 138.5078125 C-121.44346522 135.20325114 -123.375574 131.8878537 -125.3046875 128.5703125 C-125.85189453 127.64412109 -126.39910156 126.71792969 -126.96289062 125.76367188 C-130.23273141 120.11576506 -132.66019415 114.77515816 -134.4921875 108.5078125 C-135.8121875 108.5078125 -137.1321875 108.5078125 -138.4921875 108.5078125 C-136.60771844 115.92840639 -133.77684705 122.24710968 -129.9921875 128.8828125 C-129.50621094 129.75808594 -129.02023437 130.63335937 -128.51953125 131.53515625 C-125.91447693 136.22595541 -125.91447693 136.22595541 -122.84179688 140.61181641 C-121.12096936 143.02931758 -121.25041207 144.60650734 -121.4921875 147.5078125 C-127.88595141 141.30210047 -133.26651527 134.6455142 -138.2421875 127.2578125 C-138.96341797 126.19820312 -138.96341797 126.19820312 -139.69921875 125.1171875 C-141.64424187 122.25654069 -143.57333176 119.38609611 -145.4921875 116.5078125 C-146.1521875 116.5078125 -146.8121875 116.5078125 -147.4921875 116.5078125 C-147.11732853 122.47744157 -144.42382603 126.04096635 -140.9921875 130.6953125 C-140.45408447 131.43910156 -139.91598145 132.18289063 -139.36157227 132.94921875 C-132.32799545 144.0548174 -132.32799545 144.0548174 -122.4921875 151.5078125 C-121.62963369 154.47646058 -120.93717788 157.3641084 -120.3046875 160.3828125 C-115.92134252 179.42479078 -108.01918098 195.6330597 -95.04760742 210.27099609 C-91.4921875 214.30855957 -91.4921875 214.30855957 -91.4921875 216.5078125 C-83.46725189 219.9852846 -76.25314558 221.93172983 -67.4921875 221.5078125 C-66.41982196 240.61180592 -72.62799824 262.17014008 -85.421875 276.69921875 C-88.98061696 280.35394338 -91.25002214 282.64245332 -96.4921875 282.8203125 C-105.15894262 282.65549307 -112.01564074 278.24847732 -119.3046875 274.0078125 C-135.28690609 264.72082217 -153.24830435 261.73763365 -171.23461914 266.46948242 C-186.47077935 270.93887795 -199.81028336 279.33371156 -213.00830078 287.91552734 C-217.41083734 290.73775493 -221.88598431 293.43786613 -226.3671875 296.1328125 C-227.20564209 296.64175049 -228.04409668 297.15068848 -228.90795898 297.67504883 C-235.76874879 301.79432733 -241.31097761 304.69098571 -249.4921875 303.5078125 C-254.73453435 300.78955858 -257.64257791 297.87624472 -259.6328125 292.328125 C-259.99890625 291.10867188 -260.365 289.88921875 -260.7421875 288.6328125 C-266.3443232 271.15337995 -275.21427732 256.77224173 -291.4921875 247.5078125 C-295.76435303 245.35424134 -300.08687064 243.37271073 -304.4921875 241.5078125 C-305.64267578 240.99154297 -305.64267578 240.99154297 -306.81640625 240.46484375 C-333.67948825 230.85688011 -360.11861188 240.08749693 -384.4921875 251.5078125 C-391.904651 255.09658081 -399.23266707 258.8575156 -406.56665039 262.60327148 C-409.0196728 263.85404283 -411.47642359 265.09724547 -413.93359375 266.33984375 C-415.02602135 266.90237602 -415.02602135 266.90237602 -416.14051819 267.47627258 C-424.58196066 271.7371681 -432.07816641 274.02506899 -441.5546875 273.9453125 C-442.40095703 273.96529297 -443.24722656 273.98527344 -444.11914062 274.00585938 C-451.04775412 274.00051734 -456.01378474 272.19659741 -461.48828125 267.96484375 C-467.05909767 261.60898003 -470.82627943 254.06179929 -474.51318359 246.50390625 C-475.38734262 244.72158101 -476.32260628 242.96952572 -477.265625 241.22265625 C-479.01384143 235.92789885 -478.67481944 231.15524994 -478.3671875 225.6328125 C-478.31224121 224.45662354 -478.25729492 223.28043457 -478.20068359 222.06860352 C-477.54201997 209.30803796 -476.3371523 196.5954684 -475.09686279 183.88131714 C-474.62423211 178.99814275 -474.20050237 174.11261611 -473.8046875 169.22265625 C-472.51883341 153.47394911 -470.88670904 137.80579536 -468.8671875 122.1328125 C-468.7017746 120.8451297 -468.7017746 120.8451297 -468.53302002 119.53143311 C-468.21861752 117.09854963 -467.89968212 114.66632232 -467.578125 112.234375 C-467.48343933 111.50994202 -467.38875366 110.78550903 -467.29119873 110.03912354 C-466.85631736 106.80787072 -466.38635977 103.64701392 -465.4921875 100.5078125 C-463.99205653 100.65229233 -462.49209048 100.79848465 -460.9921875 100.9453125 C-460.06921875 101.03554688 -459.14625 101.12578125 -458.1953125 101.21875 C-456.03792303 101.4494535 -453.88787253 101.74845975 -451.7421875 102.0703125 C-420.88686431 105.83466193 -392.82311795 91.08563957 -368.4921875 73.5078125 C-367.94691406 73.11803223 -367.40164063 72.72825195 -366.83984375 72.32666016 C-360.07483968 67.44961136 -353.91092675 62.12649716 -347.8671875 56.3828125 C-306.17449825 16.852826 -245.21478378 15.69233637 -190.96875 13.41796875 C-189.39953954 13.35190839 -189.39953954 13.35190839 -187.79862785 13.28451347 C-171.5371736 12.61885933 -155.30164949 12.35444867 -139.02734375 12.41796875 C-137.97879778 12.42196686 -136.93025181 12.42596497 -135.84993172 12.43008423 C-126.26313952 12.47154845 -116.67662471 12.54418544 -107.09008789 12.62426758 C-76.16382668 12.91186954 -76.16382668 12.91186954 -45.30078125 11.19140625 C-44.62968889 11.1325783 -43.95859653 11.07375034 -43.26716805 11.01313972 C-31.46770221 9.94031653 -19.31534484 8.71580572 -8.9296875 2.6953125 C-3.18879155 -0.62976134 -3.18879155 -0.62976134 0 0 Z " fill="#F1FE31" transform="translate(518.4921875,265.4921875)"/>
<path d="M0 0 C1.44826172 1.10408203 1.44826172 1.10408203 2.92578125 2.23046875 C7.64984696 5.83676051 12.34685968 9.47037363 16.984375 13.1875 C29.99036025 23.55283537 43.72151047 32.67746032 57.66308594 41.72900391 C73.78258097 52.19698021 89.28891299 63.57495075 97 82 C98.45573272 89.60215978 93.28289131 97.63891568 89.8828125 104.23828125 C88.77945167 106.44012079 87.86438958 108.69496113 87 111 C86.34 111 85.68 111 85 111 C84.73832031 111.59554687 84.47664063 112.19109375 84.20703125 112.8046875 C81.4596461 117.80154982 76.40445384 121.36228672 71 123 C71 123.66 71 124.32 71 125 C69.13107405 125.78544562 67.25431665 126.55225138 65.375 127.3125 C63.80878906 127.95638672 63.80878906 127.95638672 62.2109375 128.61328125 C51.56545798 132.397304 40.55269902 133.70212505 29.3125 133.75 C28.6098703 133.75601227 27.9072406 133.76202454 27.18331909 133.76821899 C10.64249038 133.80154596 -5.63543057 131.22862813 -21.9375 128.6875 C-23.23666351 128.4853186 -24.53582703 128.28313721 -25.87435913 128.0748291 C-29.63568204 127.48210375 -33.3945245 126.87624293 -37.15234375 126.26171875 C-38.26998108 126.08027817 -39.38761841 125.89883759 -40.53912354 125.7118988 C-45.84282634 124.81895904 -51.03263564 123.77550003 -56.23681641 122.41308594 C-61.20863563 121.12990887 -65.94723189 120.46845029 -71.05859375 120.12890625 C-80.69009307 119.33974032 -90.2281327 118.05551289 -99.78515625 116.65234375 C-100.89380602 116.48958387 -100.89380602 116.48958387 -102.02485275 116.32353592 C-106.59454303 115.65057839 -111.16291075 114.96894675 -115.73101807 114.28533936 C-118.87386753 113.81645014 -122.01753475 113.35318059 -125.16123295 112.89002132 C-128.20435583 112.44136452 -131.24714708 111.99049389 -134.28982353 111.53882027 C-135.73503062 111.32432231 -137.18029788 111.11022939 -138.62562752 110.89655876 C-140.62971463 110.59970075 -142.63335004 110.29979815 -144.63696289 109.99975586 C-145.77275284 109.83035995 -146.90854279 109.66096405 -148.07875061 109.48643494 C-151 109 -151 109 -153.20158386 108.44659424 C-156.06382981 107.73582295 -158.88639468 107.85013001 -161.828125 107.83203125 C-162.48944427 107.82770584 -163.15076355 107.82338043 -163.8321228 107.81892395 C-165.97148839 107.80882241 -168.11061536 107.80873968 -170.25 107.8125 C-170.9791864 107.81376892 -171.7083728 107.81503784 -172.45965576 107.81634521 C-203.98910038 107.92153319 -234.85632058 115.21010784 -260 135 C-261.97248063 136.46736395 -263.95126344 137.92631055 -265.9375 139.375 C-266.81277344 140.01566406 -267.68804687 140.65632812 -268.58984375 141.31640625 C-270.6821862 142.77799393 -272.76902808 144.07824622 -275 145.3125 C-277.52701029 146.73394329 -279.04634215 147.94351805 -281 150 C-281.66 150 -282.32 150 -283 150 C-283 150.66 -283 151.32 -283 152 C-284.46875 153.41015625 -284.46875 153.41015625 -286.5 155.0625 C-290.42507974 158.38907467 -293.79007993 161.9892872 -297.140625 165.88671875 C-301.18037337 170.47811343 -305.64753639 174.15720372 -310.46484375 177.90234375 C-313.0654405 179.97712619 -313.0654405 179.97712619 -315.4296875 182.5 C-318.17448611 185.16971293 -320.92549409 187.06397506 -324.1875 189.0625 C-325.75564453 190.03896484 -325.75564453 190.03896484 -327.35546875 191.03515625 C-335.50259439 195.63459992 -343.99828668 197.90233783 -353.125 199.6875 C-354.15753906 199.89955078 -355.19007813 200.11160156 -356.25390625 200.33007812 C-365.07591521 202.11133726 -373.49143939 203.1578675 -382.5 203.0625 C-383.32242188 203.05798828 -384.14484375 203.05347656 -384.9921875 203.04882812 C-386.99482396 203.03718489 -388.99742227 203.01925556 -391 203 C-387.27773699 161.76877894 -358.07498981 119.95988857 -327.1484375 93.56640625 C-325.31483859 92.07628432 -323.47247273 90.59687908 -321.62109375 89.12890625 C-319.11757981 87.09550074 -316.78446904 84.960564 -314.4375 82.75 C-274.99619074 47.01790478 -274.99619074 47.01790478 -257.5625 45.75 C-256.716875 45.8325 -255.87125 45.915 -255 46 C-255.26932386 41.62185139 -255.26932386 41.62185139 -257.90625 38.33984375 C-258.7621875 37.87707031 -259.618125 37.41429687 -260.5 36.9375 C-273.52300763 29.26594934 -285.12925625 19.45183262 -296 9 C-294.51874626 3.71552719 -291.07705654 0.70054228 -287.25 -3 C-286.6415625 -3.60328125 -286.033125 -4.2065625 -285.40625 -4.828125 C-275.05747283 -15 -275.05747283 -15 -271 -15 C-270.51756836 -14.06486572 -270.51756836 -14.06486572 -270.02539062 -13.11083984 C-264.33484265 -2.09707242 -258.65666366 8.88745086 -252.328125 19.55078125 C-251 22 -251 22 -251 24 C-248.69 24 -246.38 24 -244 24 C-243.67 22.35 -243.34 20.7 -243 19 C-242.34 19 -241.68 19 -241 19 C-241 21.31 -241 23.62 -241 26 C-234.70120756 25.65186623 -231.45682841 23.60170753 -226.625 19.6875 C-225.20997759 18.58512575 -223.79325583 17.48492995 -222.375 16.38671875 C-221.65183594 15.82259277 -220.92867187 15.2584668 -220.18359375 14.67724609 C-213.9556503 9.89348362 -207.46026443 5.4618893 -201 1 C-200.25427734 0.48373047 -199.50855469 -0.03253906 -198.74023438 -0.56445312 C-139.45777802 -41.41922877 -58.8606633 -46.16693089 0 0 Z " fill="#363636" transform="translate(434,92)"/>
<path d="M0 0 C4.12960971 1.49957895 7.68272713 3.54227317 11.4375 5.8125 C26.57122466 14.68274532 43.82159273 19.76687472 61.25 15.75 C66.21458369 14.38473948 70.50973363 12.50418701 75 10 C75.20753906 10.969375 75.41507813 11.93875 75.62890625 12.9375 C82.64199649 44.06715319 100.79510218 64.49532451 126 83 C122.80899907 97.12515229 118.42994184 110.8621914 113.99455643 124.63785934 C113.36768328 126.58522924 112.74278018 128.53322489 112.1178894 130.48123169 C106.4340789 148.16648359 100.33118619 165.63286217 93.5625 182.9375 C93.1862851 183.90018799 92.81007019 184.86287598 92.42245483 185.85473633 C92.04932159 186.80952881 91.67618835 187.76432129 91.29174805 188.74804688 C79.70670363 218.40675194 70.71656969 248.57019219 62.17883301 279.22877502 C53.66378819 309.74187225 43.36149185 339.25466563 30 368 C29.52385254 369.03592285 29.04770508 370.0718457 28.55712891 371.13916016 C12.55055868 405.90213311 -10.35651018 444.8350178 -48.18359375 459.0390625 C-49.11300781 459.35617187 -50.04242187 459.67328125 -51 460 C-51.87785156 460.31710937 -52.75570312 460.63421875 -53.66015625 460.9609375 C-63.99622765 464.27944054 -74.13641134 464.44081987 -84 460 C-83.71104858 458.1578894 -83.71104858 458.1578894 -83.41625977 456.27856445 C-81.28350403 442.28223123 -79.97129171 428.30318179 -78.9375 414.1875 C-78.76587446 411.91145793 -78.59424352 409.63541627 -78.42260742 407.359375 C-77.18502116 390.69227096 -76.23084267 374.01984802 -75.49324036 357.32365417 C-75.46066635 356.5877858 -75.42809235 355.85191742 -75.39453125 355.09375 C-75.36344772 354.38893997 -75.3323642 353.68412994 -75.30033875 352.95796204 C-75.02367622 346.95713364 -74.56588481 340.97992782 -74 335 C-71.89029337 338.16455994 -70.64976286 341.34981172 -69.3125 344.875 C-61.58663493 364.49850722 -50.30522021 379.86161927 -30.625 388.625 C-26.41709746 390.11174676 -23.34739096 390.36388736 -19 389 C-15.64788507 386.81383809 -14.27313396 385.81940188 -13 382 C-11.5412844 365.3706422 -25.24640746 349.68668458 -35.23852539 337.59716797 C-39.06811308 333.03297561 -42.98633795 328.55379097 -47.01953125 324.16796875 C-48.91881308 322.08887326 -50.74188389 319.96041788 -52.5625 317.8125 C-56.81526311 312.92823611 -61.52977718 308.51238132 -67.0625 305.125 C-69 303 -69 303 -69.125 299.25 C-67.28004848 288.85274983 -64.57089067 277.70305086 -57 270 C-56.30197266 269.21109375 -56.30197266 269.21109375 -55.58984375 268.40625 C-51.37088918 264.17650527 -46.26016996 262.37800049 -40.77416992 260.32202148 C-32.3352618 257.10107217 -25.19617427 252.57169998 -19 246 C-17.685 245.29786239 -16.35358863 244.62451584 -15 244 C-14.65855957 244.53778076 -14.31711914 245.07556152 -13.96533203 245.62963867 C2.34401819 273.1028783 2.34401819 273.1028783 27.5 291.375 C32.71482439 292.30621864 36.82453886 291.87018446 41.8125 289.875 C45.87375955 286.39392038 46.84266861 282.37103073 47.4375 277.1875 C46.9118227 267.02440563 40.78559655 259.47004589 34.56860352 251.91772461 C33.39270077 250.48010343 32.23461859 249.02787483 31.08569336 247.56860352 C25.16410814 240.13304874 18.70177623 233.46433883 11.9375 226.8125 C10.86996892 225.75503537 9.80290908 224.6970948 8.73632812 223.63867188 C6.16293544 221.08696415 3.58331632 218.54166543 1 216 C1.33990967 215.1529248 1.67981934 214.30584961 2.0300293 213.43310547 C10.67073517 191.51802384 11.73060863 169.69185235 2.52905273 147.55249023 C-4.10936431 132.35604226 -13.40815871 118.79798445 -25.72265625 107.62890625 C-26.51486572 106.89712158 -27.3070752 106.16533691 -28.12329102 105.41137695 C-29.6758149 103.99951317 -31.26051047 102.62203051 -32.87866211 101.28588867 C-35.09748867 99.26788139 -36.64164543 97.6785386 -38 95 C-37.9403331 90.65278503 -36.57380727 87.01875099 -35 83 C-34.64276855 82.02401855 -34.28553711 81.04803711 -33.91748047 80.04248047 C-32.73760966 76.93628998 -31.47510444 73.87554019 -30.1875 70.8125 C-29.71320557 69.6668457 -29.23891113 68.52119141 -28.75024414 67.34082031 C-27.17802737 63.55575085 -25.59105135 59.77717453 -24 56 C-23.42638847 54.63527232 -22.85282149 53.27052592 -22.27929688 51.90576172 C-14.97905204 34.54923198 -7.55816401 17.24587387 0 0 Z " fill="#AC7443" transform="translate(587,187)"/>
<path d="M0 0 C6.69471965 6.69471965 6.41762088 22.41582748 6.4375 31.3125 C6.20778816 47.43661054 2.43223575 61.56177746 -8.9375 73.5 C-12.99151916 77.19261435 -17.26288295 80.24725009 -22 83 C-23.24330078 83.79083984 -23.24330078 83.79083984 -24.51171875 84.59765625 C-35.93342334 90.93958499 -49.23193396 90.99947997 -62 92 C-62.84810745 92.08422714 -63.6962149 92.16845428 -64.57002258 92.25523376 C-74.11601266 93.12879068 -83.61097657 93.10230041 -93.1862545 93.04490852 C-96.24638794 93.0268818 -99.306482 93.01563733 -102.36665344 93.00621033 C-106.72491229 92.99266849 -111.0831584 92.97733768 -115.44140625 92.96063232 C-168.65916579 92.75439399 -168.65916579 92.75439399 -221.82507324 94.8671875 C-223.90550509 94.99422964 -225.98622059 95.11218347 -228.06738281 95.2265625 C-264.45991928 97.27204464 -300.68133006 101.20196024 -333.9375 116.875 C-334.96770264 117.35646484 -335.99790527 117.83792969 -337.05932617 118.33398438 C-346.92796804 123.1232133 -355.56361172 129.2511182 -363.4375 136.875 C-364.54902885 137.91853639 -365.66234431 138.96017269 -366.77734375 140 C-367.32116699 140.50789062 -367.86499023 141.01578125 -368.42529297 141.5390625 C-393.35550436 164.66811443 -424.77668732 184.26565794 -459.65039062 183.14501953 C-468.13543752 182.62131651 -476.35534346 180.72027582 -484 177 C-492.96494579 166.33898338 -491.28519529 149.65545816 -490.6875 136.5 C-490.65293701 135.68829346 -490.61837402 134.87658691 -490.58276367 134.0402832 C-490.2742398 128.53253985 -489.35153866 123.34548307 -488 118 C-487.33806641 117.96559814 -486.67613281 117.93119629 -485.99414062 117.89575195 C-459.41283868 116.42079155 -433.80178344 113.40752774 -412 97 C-410.63433676 95.3597197 -409.2968321 93.69522331 -408 92 C-406 90.33984375 -406 90.33984375 -404 88.9375 C-399.63823121 85.76457427 -396.21458176 82.25300796 -392.6875 78.1875 C-385.57876983 70.02165262 -385.57876983 70.02165262 -382 67 C-381.34 67 -380.68 67 -380 67 C-380 66.34 -380 65.68 -380 65 C-378.2421875 63.37890625 -378.2421875 63.37890625 -375.875 61.5625 C-375.10929687 60.96566406 -374.34359375 60.36882812 -373.5546875 59.75390625 C-371 58 -371 58 -368.171875 56.63671875 C-364.20019791 54.58729424 -360.88996001 51.98994466 -357.375 49.25 C-340.2366257 36.2437721 -321.10727784 28.16446811 -300 24 C-298.30810547 23.66355469 -298.30810547 23.66355469 -296.58203125 23.3203125 C-273.65880619 19.6705951 -250.53519887 21.66075985 -227.87686157 25.79695129 C-218.33903065 27.51519301 -208.74540403 28.88310718 -199.15625 30.27975464 C-196.01081719 30.73928868 -192.86671841 31.20721836 -189.72265625 31.67602539 C-180.62319966 33.01632667 -171.63270171 34.32556489 -162.42797852 34.60253906 C-158.24237618 35.08784357 -154.31810994 36.15331307 -150.24354553 37.20834351 C-144.92647508 38.506088 -139.55233923 39.38503118 -134.15234375 40.26171875 C-132.95355087 40.45782745 -131.754758 40.65393616 -130.51963806 40.85598755 C-126.66075497 41.47881367 -122.7998898 42.08681352 -118.9375 42.6875 C-117.95256435 42.8407052 -117.95256435 42.8407052 -116.94773102 42.99700546 C-100.64323189 45.52163149 -84.41043326 47.89610545 -67.875 47.8125 C-66.57812256 47.81145264 -65.28124512 47.81040527 -63.94506836 47.80932617 C-50.92208593 47.4495563 -38.34271994 44.0030443 -26 40 C-26 39.34 -26 38.68 -26 38 C-24.20703125 36.703125 -24.20703125 36.703125 -21.8125 35.25 C-17.63345534 32.57567425 -15.00166756 29.91126379 -12 26 C-11.34 25.67 -10.68 25.34 -10 25 C-8.97056828 22.89661291 -8.97056828 22.89661291 -8.0625 20.375 C-6.90063049 17.34553283 -5.72242364 14.35602284 -4.4375 11.375 C-2.83810925 7.61990867 -1.41088042 3.82953256 0 0 Z " fill="#171717" transform="translate(531,177)"/>
<path d="M0 0 C1.32 0 2.64 0 4 0 C4.49628906 1.01578125 4.99257813 2.0315625 5.50390625 3.078125 C9.31654239 10.82230623 13.2502959 18.36990444 17.75 25.7421875 C19 28 19 28 19 30 C24.48667179 29.56106626 27.57378176 28.21906781 32 25 C41.00710742 21.99763086 47.8503606 25.14918871 56 29 C56.88171875 29.37253906 57.7634375 29.74507813 58.671875 30.12890625 C66.44091742 33.59119689 71.91698326 38.98273576 77.0625 45.6875 C78.91290247 47.89604488 80.52727056 49.12736967 82.875 50.75 C90.8447301 56.58259577 94.25630506 64.46780099 96 74 C96.87061316 82.41592718 94.1391696 88.576038 89 95 C88.4783459 96.48575829 88.00264497 97.98808959 87.5625 99.5 C85.76275923 105.27257279 82.55464393 108.27355839 77.375 111.25 C69.68905714 114.78957895 62.20684686 114.57950165 54.2890625 111.984375 C47.10705381 108.89586615 43.61090116 104.11371339 39 98 C38.32453125 97.13890625 37.6490625 96.2778125 36.953125 95.390625 C26.28474057 81.41421439 16 61.01981647 16 43 C15.4328125 42.93683594 14.865625 42.87367188 14.28125 42.80859375 C6.50328376 40.05167763 -0.16763459 27.13326769 -4.6875 20.5625 C-5.22890625 19.79365479 -5.7703125 19.02480957 -6.328125 18.23266602 C-10.0389889 12.70452036 -10.0389889 12.70452036 -9.83203125 8.96484375 C-9.55746094 8.31644531 -9.28289062 7.66804688 -9 7 C-5.17781869 8.4758097 -3.85933514 10.38779939 -1.8125 13.875 C3.41400179 22.42847927 9.46090618 30.40621363 16 38 C15.41862686 34.20208927 14.33392966 31.46367829 12.3828125 28.1640625 C11.85816406 27.26429688 11.33351563 26.36453125 10.79296875 25.4375 C10.24253906 24.509375 9.69210937 23.58125 9.125 22.625 C-0.56311974 6.19431712 -0.56311974 6.19431712 0 0 Z " fill="#040402" transform="translate(380,374)"/>
<path d="M0 0 C17.47442044 14.85722283 25.01481711 38.62292366 27.14453125 60.8828125 C27.41075474 65.8891128 27.34400599 70.87378024 27.14453125 75.8828125 C23.3703377 71.1811996 23.3703377 71.1811996 21.72265625 69.00390625 C18.11531095 64.43106558 14.54769782 61.99940728 9.14453125 59.8828125 C8.09265625 59.4703125 7.04078125 59.0578125 5.95703125 58.6328125 C-4.46582852 56.58241386 -13.07467941 58.01707195 -22.85546875 61.8828125 C-23.84546875 62.2128125 -24.83546875 62.5428125 -25.85546875 62.8828125 C-25.9534375 61.78324219 -26.05140625 60.68367188 -26.15234375 59.55078125 C-27.31297201 47.64084588 -28.8426539 35.64633672 -37.85546875 26.8828125 C-45.40170071 21.36447675 -51.93063904 18.2776824 -61.30859375 19.45703125 C-64.89778072 20.05706404 -68.34954666 20.90894525 -71.85546875 21.8828125 C-69.8411808 17.47808516 -66.93990569 14.58312892 -63.54296875 11.1953125 C-62.92284912 10.5768042 -62.30272949 9.9582959 -61.66381836 9.32104492 C-43.47674089 -8.39561746 -22.17541743 -16.44196477 0 0 Z " fill="#AB7443" transform="translate(699.85546875,99.1171875)"/>
<path d="M0 0 C10.72547432 7.59721098 13.5826985 22.7463979 16 35 C16.33763193 37.86311881 16.54362541 40.68500822 16.6875 43.5625 C17.16928614 47.32043187 18.61537223 50.56799873 20.16015625 54.00390625 C21 56 21 56 21 58 C21.66 58 22.32 58 23 58 C25.07151369 61.00012328 27.03469011 64.0542033 29 67.125 C33.57970508 72.52706699 42.02905837 73.87543897 48.75 74.75 C49.8225 74.8325 50.895 74.915 52 75 C45.78850278 81.56643992 40.95037141 84.0898166 32 84.375 C16.32846228 84.21723284 2.07966197 73.27297039 -9 63 C-19.73078034 51.59093694 -30.78023593 35.562193 -34 20 C-34.26425781 18.90300781 -34.52851562 17.80601562 -34.80078125 16.67578125 C-36.70878988 7.31186195 -36.70878988 7.31186195 -34.84765625 3.8671875 C-32.99216646 2.19261848 -31.23808497 1.10660868 -29 0 C-28.40703125 -0.33386719 -27.8140625 -0.66773438 -27.203125 -1.01171875 C-18.72652927 -5.01455562 -8.19704863 -4.09852432 0 0 Z " fill="#676767" transform="translate(710,168)"/>
<path d="M0 0 C3.6856428 2.13833691 6.9838253 4.42078741 10.16796875 7.2578125 C11.04388672 8.03318359 11.04388672 8.03318359 11.9375 8.82421875 C18.5930013 15.53981487 24.07310333 25.80158229 25.66015625 35.16015625 C25.23359683 43.9330616 19.81105182 52.79768072 14.16796875 59.2578125 C12.3515625 60.8046875 12.3515625 60.8046875 10.60546875 62.0078125 C10.02667969 62.41515625 9.44789063 62.8225 8.8515625 63.2421875 C3.42484494 66.51584542 -3.5527673 66.00288405 -9.53125 64.64453125 C-18.10705045 61.66335713 -22.75425057 55.70855996 -26.8515625 47.76171875 C-27.7960283 45.78764114 -28.72689908 43.80700555 -29.64453125 41.8203125 C-30.12083984 40.83482422 -30.59714844 39.84933594 -31.08789062 38.83398438 C-35.73101891 28.97958131 -38.44519566 19.99664154 -35.23046875 9.24609375 C-33.43191508 4.6904166 -31.1289495 0.44587366 -26.6796875 -1.85546875 C-18.35804033 -4.44670868 -7.83018981 -3.75114621 0 0 Z " fill="#FDFDFD" transform="translate(187.83203125,388.7421875)"/>
<path d="M0 0 C3.06072126 0.32549694 4.60798483 0.60714179 6.81640625 2.8203125 C7.39261719 3.58085937 7.96882812 4.34140625 8.5625 5.125 C14.01746038 11.59243409 20.71862064 15.4498454 28.625 18.3125 C33.13307118 17.895086 35.90814227 15.93453931 39.6640625 13.50390625 C45.73458281 9.59562813 51.95568574 9.13632929 59 10 C74.37166835 14.18378337 89.50859796 24.13771052 97.87890625 37.890625 C101.94120211 45.53396913 101.43810538 53.20067577 99.00390625 61.32421875 C98.08405102 64.69224898 97.6551358 67.69991348 97.3684082 71.15307617 C96.5745146 80.62944444 94.88918717 88.61303338 87.75 95.4375 C79.72681877 101.50213164 70.77514589 101.83922051 61 101 C55.56031808 99.48402307 51.76835603 96.456705 47.453125 92.94140625 C44.88173606 90.90640576 42.21090969 89.09387293 39.5 87.25 C28.46091488 79.1823841 18.83440928 65.64820617 16 52 C15.88079213 49.54376334 15.82477094 47.08409708 15.8125 44.625 C15.79832031 43.33851563 15.78414062 42.05203125 15.76953125 40.7265625 C15.99285859 37.11547289 16.68706968 34.35238333 18 31 C17.195625 30.814375 16.39125 30.62875 15.5625 30.4375 C6.04557466 26.59733714 0.5420286 19.34626849 -5 11 C-5.66 10.01 -6.32 9.02 -7 8 C-7.125 4.8125 -7.125 4.8125 -7 2 C-5.17578125 2.21484375 -5.17578125 2.21484375 -3 3 C-1.54296875 5.00390625 -1.54296875 5.00390625 -0.1875 7.5625 C4.46314312 15.70112546 9.84661784 22.75374237 19 26 C19.99 25.67 20.98 25.34 22 25 C20.57656359 21.49036313 19.02121604 20.08005246 15.8125 18.125 C9.78291703 14.27653627 3.98151692 10.05190572 0 4 C0 2.68 0 1.36 0 0 Z M33.390625 25.47265625 C28.57405442 32.18616387 27.18178012 39.96154632 28.26953125 48.11328125 C29.94708132 54.74274384 33.02153291 60.87393678 36 67 C36.44617676 67.93706787 36.44617676 67.93706787 36.90136719 68.89306641 C41.01536798 77.45046447 44.91372117 83.9157712 53.75 87.875 C59.87220106 89.8760307 66.34368882 89.98381895 72.375 87.75 C73.24125 87.1725 74.1075 86.595 75 86 C75.825 85.46375 76.65 84.9275 77.5 84.375 C84.31775897 77.89812897 89.68002765 68.5498831 90.375 59.06640625 C88.93961969 47.32918186 80.95412424 35.3656959 72 28 C64.51271969 23.40158486 57.9699961 20.81369897 49.1875 20.75 C48.13852539 20.7190625 48.13852539 20.7190625 47.06835938 20.6875 C41.55501123 20.64624014 37.50316201 21.70948525 33.390625 25.47265625 Z " fill="#050503" transform="translate(123,365)"/>
<path d="M0 0 C0.886875 0.144375 1.77375 0.28875 2.6875 0.4375 C3.265 1.35273438 3.8425 2.26796875 4.4375 3.2109375 C6.96403369 6.83405699 9.58217832 8.47488022 13.375 10.5 C22.45967815 15.66065328 30.5623389 21.89426367 38.6875 28.4375 C39.28385254 28.91525879 39.88020508 29.39301758 40.49462891 29.88525391 C58.53152171 44.46597563 75.91779664 61.32141421 87.6875 81.4375 C88.07164062 82.08847656 88.45578125 82.73945313 88.8515625 83.41015625 C90.56242394 87.55939498 90.33227445 92.05702201 89.6875 96.4375 C87.5625 99.125 87.5625 99.125 84.6875 100.4375 C77.40659646 101.08314629 73.33533812 97.62142056 67.6875 93.4375 C65.65655778 91.66850538 63.67111281 89.89007787 61.70703125 88.05078125 C61.14997498 87.53246231 60.5929187 87.01414337 60.01898193 86.4801178 C53.97849622 80.82674429 48.08764375 75.02374297 42.23828125 69.17358398 C40.42986874 67.36737805 38.61354861 65.56937658 36.796875 63.77148438 C29.96050761 56.96758455 23.65619776 50.02438149 17.6875 42.4375 C16.33614035 40.81016492 14.98233717 39.18485266 13.625 37.5625 C-5.08142452 14.02141308 -5.08142452 14.02141308 -4.02734375 3.625 C-3.08202034 0.73220706 -3.01065542 0.56958346 0 0 Z " fill="#020101" transform="translate(592.3125,225.5625)"/>
<path d="M0 0 C6.73028595 4.88746956 10.74502614 10.32081139 12.94921875 18.5078125 C13.55320456 22.5750197 13.4796191 26.58250739 13.4375 30.6875 C13.43298828 31.52345703 13.42847656 32.35941406 13.42382812 33.22070312 C13.41210548 35.27216649 13.39417203 37.32359273 13.375 39.375 C11.81648245 40.19511312 10.25298284 41.00576213 8.6875 41.8125 C7.38232422 42.49119141 7.38232422 42.49119141 6.05078125 43.18359375 C-7.8156751 49.35770935 -27.79826505 44.98195354 -41.45703125 40.1171875 C-55.51479098 34.47197261 -68.95949329 27.23924286 -79.625 16.375 C-79.295 15.715 -78.965 15.055 -78.625 14.375 C-78.03332031 14.65214844 -77.44164062 14.92929688 -76.83203125 15.21484375 C-76.04183594 15.57707031 -75.25164063 15.93929687 -74.4375 16.3125 C-73.66019531 16.67214844 -72.88289062 17.03179687 -72.08203125 17.40234375 C-64.24352226 20.50534652 -54.46816854 20.71555184 -46.5 18 C-41.21341912 15.6055908 -37.37426844 11.74632709 -33.2109375 7.78125 C-24.70852522 -0.13036022 -10.78583731 -6.75888818 0 0 Z " fill="#676767" transform="translate(651.625,128.625)"/>
<path d="M0 0 C2.09267045 3.45745553 2.11617554 6.50727919 1.4375 10.375 C-4.11642956 24.92100598 -24.84362544 34.53253873 -38.37426758 40.83032227 C-44.34518178 43.46616797 -50.02240067 44.96175197 -56.5625 45.375 C-57.6040625 45.45492187 -58.645625 45.53484375 -59.71875 45.6171875 C-66.26172267 45.89251061 -70.30868559 45.37246748 -75.5625 41.375 C-77.54129843 38.40680236 -77.92032195 37.51357697 -78.0625 34.125 C-78.13984375 33.03445313 -78.13984375 33.03445313 -78.21875 31.921875 C-76.22456278 24.18252936 -68.15326485 19.60457569 -61.875 15.5 C-60.9567041 14.89502686 -60.0384082 14.29005371 -59.09228516 13.66674805 C-43.51674785 3.62641842 -18.44877384 -11.69922243 0 0 Z " fill="#E7EE5D" transform="translate(404.5625,321.625)"/>
<path d="M0 0 C3.99361425 2.84104543 6.22084246 5.61034545 8.6875 9.82421875 C9.93603764 10.91283134 11.21030698 11.97219217 12.5 13.01171875 C19.65364747 19.04555032 24.22935493 27.43302323 25.0234375 36.77734375 C25.05272044 38.20939524 25.06522249 39.64187049 25.0625 41.07421875 C25.06334595 42.19376953 25.06334595 42.19376953 25.06420898 43.3359375 C24.94562323 49.31836217 24.14641535 56.3653034 19.6875 60.82421875 C8.15454833 61.7540071 -3.34161523 60.20691782 -13.1875 53.80078125 C-17.32051144 49.95647282 -18.75018723 45.12719097 -20.3125 39.82421875 C-20.62960937 38.79941406 -20.94671875 37.77460938 -21.2734375 36.71875 C-23.78351103 27.4499005 -25.69490426 15.20531181 -21.75 6.07421875 C-17.09814565 -1.25204663 -7.85718019 -3.99495141 0 0 Z " fill="#FDFDFD" transform="translate(436.3125,409.17578125)"/>
<path d="M0 0 C4.1874492 1.42616023 7.0766517 3.47083015 10.5 6.25 C24.66576778 17.43009195 39.83930708 26.99378516 56 35 C53.35849878 36.76100081 50.94012283 37.9985506 48.0546875 39.28515625 C46.57560913 39.95043335 46.57560913 39.95043335 45.06665039 40.62915039 C43.48678345 41.33865845 43.48678345 41.33865845 41.875 42.0625 C27.03556917 48.80448216 12.91581156 56.35904261 -1.08203125 64.69140625 C-5.98138969 67.59804831 -10.96927091 70.32708562 -16 73 C-15.82331787 72.472854 -15.64663574 71.94570801 -15.46459961 71.40258789 C-14.63992882 68.9360945 -13.81969318 66.46815196 -13 64 C-12.7230127 63.17097168 -12.44602539 62.34194336 -12.16064453 61.48779297 C-5.50106006 41.33956488 -2.17477997 21.06102709 0 0 Z " fill="#F4A6B3" transform="translate(289,408)"/>
<path d="M0 0 C4.36243939 2.61746363 6.4324342 4.70338989 9 9 C24.79749632 25.78926739 51.52677762 33.9087548 73.703125 35.21875 C81.02093026 35.40882286 87.17262892 34.64576762 94 32 C95.03125 31.608125 96.0625 31.21625 97.125 30.8125 C97.74375 30.544375 98.3625 30.27625 99 30 C98.46800813 38.245874 97.11155502 46.4951221 90.875 52.4375 C81.91250862 59.12620921 70.66885631 59.01851998 60 57.6015625 C47.33725728 54.95202122 35.07425672 47.95336057 25 40 C24.24460937 39.41992188 23.48921875 38.83984375 22.7109375 38.2421875 C11.63754995 29.14754962 1.88408173 14.36612321 0 0 Z " fill="#292929" transform="translate(566,138)"/>
<path d="M0 0 C31.78585529 18.78054696 31.78585529 18.78054696 39 33.6875 C39.433125 34.55375 39.86625 35.42 40.3125 36.3125 C41.19699619 39.3680323 41.46176656 41.52110074 41 44.6875 C39.0625 47.5625 39.0625 47.5625 36 49.6875 C29.33077232 50.83978368 23.90397976 48.92896635 18 46 C16.77603516 45.40312378 16.77603516 45.40312378 15.52734375 44.79418945 C3.2403577 38.54031296 -16.38844093 26.52217722 -21 12.6875 C-21.56968464 5.62341048 -21.56968464 5.62341048 -19.25 1.8125 C-13.28152124 -3.82439661 -7.07001323 -3.6891648 0 0 Z " fill="#E7EE5D" transform="translate(213,310.3125)"/>
<path d="M0 0 C0.66 0 1.32 0 2 0 C2.15855469 1.09957031 2.31710937 2.19914063 2.48046875 3.33203125 C3.85607446 12.27498896 5.65067661 19.96857897 10 28 C10.45375 28.89976562 10.9075 29.79953125 11.375 30.7265625 C14.95829678 37.63998835 19.23406715 43.85222863 24 50 C24.51949219 50.69867188 25.03898438 51.39734375 25.57421875 52.1171875 C34.32139555 63.08971658 48.78700264 71.59566755 62 76 C69.59251337 76.54009671 76.17461296 76.53457543 83 73 C85.77152212 70.47943955 85.77152212 70.47943955 88 68 C88.99 67.67 89.98 67.34 91 67 C88.70714017 75.50771672 84.83072331 84.30156601 77 89 C67.92043472 93.11015021 60.7892372 94.49318713 51.27734375 90.96484375 C42.72140556 87.33994369 36.01180324 82.03849344 29 76 C28.15179687 75.29875 27.30359375 74.5975 26.4296875 73.875 C12.14511357 61.69504982 1.14410714 44.72552307 -2 26 C-2.51713349 17.14859878 -1.59459539 8.69908734 0 0 Z " fill="#292929" transform="translate(673,175)"/>
<path d="M0 0 C5.05431041 0.43158248 8.22566694 3.15124707 12.0625 6.1875 C13.49156528 7.28506215 14.92264894 8.38000001 16.35546875 9.47265625 C17.11005371 10.04902832 17.86463867 10.62540039 18.64208984 11.21923828 C32.01843275 21.32143803 45.91956811 31.09398681 61.25585938 38.01855469 C61.98095703 38.35016602 62.70605469 38.68177734 63.453125 39.0234375 C64.10958008 39.30880371 64.76603516 39.59416992 65.44238281 39.88818359 C67 41 67 41 67.72167969 43.12353516 C67.81352539 43.74276855 67.90537109 44.36200195 68 45 C64.32592726 48.18097351 60.20375177 49.66482588 55.75 51.4375 C33.1431476 60.75341439 11.23764647 72.46200758 -9.09521484 86.07177734 C-10.06797363 86.72227051 -11.04073242 87.37276367 -12.04296875 88.04296875 C-12.90301514 88.63489014 -13.76306152 89.22681152 -14.64916992 89.83666992 C-17 91 -17 91 -19.30981445 90.68481445 C-19.86757568 90.45882568 -20.42533691 90.23283691 -21 90 C-22.30579827 86.38611505 -21.98450826 84.96036801 -20.55859375 81.3125 C-19.85944515 79.8711497 -19.15184708 78.43387855 -18.4375 77 C-8.69735592 56.26878224 -5.34974043 34.23266386 -3.08911133 11.64379883 C-2.97591553 10.56767334 -2.86271973 9.49154785 -2.74609375 8.3828125 C-2.60192017 6.93479248 -2.60192017 6.93479248 -2.45483398 5.45751953 C-2 3 -2 3 0 0 Z M3 8 C2.90501221 8.82910889 2.81002441 9.65821777 2.7121582 10.51245117 C0.19910285 32.07998439 -2.75839608 52.84001691 -10.8527832 73.13964844 C-11.61844232 75.07407788 -12.31603664 77.03519841 -13 79 C-12.67 79.66 -12.34 80.32 -12 81 C-11.29617188 80.59273682 -10.59234375 80.18547363 -9.8671875 79.76586914 C-3.57173472 76.12451268 2.72716186 72.48926147 9.03105164 68.86253357 C12.2090757 67.03365473 15.38236565 65.19702562 18.55078125 63.3515625 C31.47336308 55.88130612 44.937605 49.04553524 59 44 C55.77430306 41.38647912 52.40205816 39.65084872 48.6875 37.8125 C33.80961173 30.15018962 20.16674923 19.6998213 7.01171875 9.40625 C5.13588083 7.80902394 5.13588083 7.80902394 3 8 Z " fill="#040402" transform="translate(286,400)"/>
<path d="M0 0 C39.69173963 33.38177077 39.69173963 33.38177077 42.30078125 51.03515625 C42.31764583 53.95272816 42.28606855 56.40998362 41 59.0625 C37.55577109 60.6769823 34.49759356 60.07006796 31 59 C17.36929222 52.55238103 9.17813965 38.30818231 1.35693359 26.08837891 C0.14428335 24.22205825 -1.10506447 22.3934999 -2.38671875 20.57421875 C-3.04285156 19.62160156 -3.69898438 18.66898437 -4.375 17.6875 C-5.22191406 16.48673828 -5.22191406 16.48673828 -6.0859375 15.26171875 C-7 13 -7 13 -6.328125 10.4765625 C-4.3897069 6.86198287 -2.21920882 3.44561369 0 0 Z " fill="#DBB799" transform="translate(584,411)"/>
<path d="M0 0 C4.88200427 3.01513769 8.79421461 6.48028229 12.8125 10.5625 C13.73434082 11.49340454 13.73434082 11.49340454 14.67480469 12.44311523 C19.81194957 17.69149751 24.50433149 23.19172755 29 29 C30.21429687 30.52367187 30.21429687 30.52367187 31.453125 32.078125 C35.91163013 37.71122862 40.09589151 43.46761014 44 49.5 C44.37382813 50.07532471 44.74765625 50.65064941 45.1328125 51.2434082 C48.82728339 57.06818627 50.27194277 61.06545944 50 68 C47.04063985 68.88038313 45.43653325 69.15639042 42.4921875 68.1015625 C16.8723077 53.64736166 9.32418461 32.3711874 0.69921875 5.56518555 C0 3 0 3 0 0 Z " fill="#DAB799" transform="translate(516,500)"/>
<path d="M0 0 C4.25321145 2.01961953 7.81222308 4.67804867 11.5625 7.5 C12.27341797 8.03391357 12.98433594 8.56782715 13.71679688 9.11791992 C19.81445607 13.75382093 25.41291539 18.75982587 31 24 C32.41089671 25.23578542 33.82710526 26.46554841 35.25 27.6875 C41.70114541 33.3109017 47.51374974 39.43760065 53 46 C53.43957031 46.52045898 53.87914062 47.04091797 54.33203125 47.57714844 C65.06635949 60.37298851 65.06635949 60.37298851 67 69 C62.81083439 67.07492101 59.61137682 65.02206085 56.25 61.875 C55.37730469 61.06546875 54.50460937 60.2559375 53.60546875 59.421875 C52.74566406 58.62265625 51.88585937 57.8234375 51 57 C49.52130995 55.70778773 48.04213507 54.41613008 46.5625 53.125 C41.31092109 48.40025146 36.3147736 43.4239845 31.3125 38.4375 C30.50433838 37.63393066 29.69617676 36.83036133 28.86352539 36.00244141 C24.03693966 31.1634531 19.41267624 26.2189943 15 21 C14.42983154 20.32590088 13.85966309 19.65180176 13.2722168 18.95727539 C11.56400652 16.91962629 9.87359308 14.86847115 8.1875 12.8125 C7.61580078 12.12736328 7.04410156 11.44222656 6.45507812 10.73632812 C3.64230696 7.3021692 1.31636526 4.31801343 0 0 Z " fill="#D6B396" transform="translate(607,248)"/>
<path d="M0 0 C-2 2 -2 2 -5.375 3.625 C-10.28720344 6.34717941 -11.95345737 10.70201368 -13.59375 15.87109375 C-15.20159172 24.29680278 -13.94918146 33.54211516 -13 42 C-18.27473353 35.75798009 -20.78944506 26.24406429 -20.3125 18.12109375 C-19.26209316 10.99145736 -17.39620136 6.56480105 -11.62109375 2.09375 C-7.69864407 -0.55272207 -4.65266402 -0.07504297 0 0 Z " fill="#F4F4F4" transform="translate(423,403)"/>
<path d="M0 0 C1 2 1 2 0.46875 4.171875 C-2.29561187 11.52864449 -5.61860356 15.52844303 -12.4375 19.375 C-16.031855 20.25167195 -19.30366691 20.12529943 -23 20 C-21.31364771 18.87576514 -19.62223327 17.75876694 -17.9140625 16.66796875 C-10.73338674 12.02381156 -5.46381248 6.5152678 0 0 Z " fill="#EAEAEA" transform="translate(214,441)"/>
<path d="M0 0 C1.2065625 0.27714844 2.413125 0.55429687 3.65625 0.83984375 C5.27078763 1.20593077 6.88537357 1.57180483 8.5 1.9375 C9.29148437 2.11990234 10.08296875 2.30230469 10.8984375 2.49023438 C15.92400105 3.62304583 20.87807429 4.44199204 26 5 C24.4462104 6.83055837 23.50000807 7.88437313 21.125 8.43359375 C14.66986011 8.44545982 8.72768573 7.04224619 3 4 C1.1796875 1.859375 1.1796875 1.859375 0 0 Z " fill="#F2F2F2" transform="translate(426,470)"/>
<path d="M0 0 C7.38049829 3.24544233 12.57814657 9.88254486 16 17 C17.3486458 20.5963888 17.07323602 24.19172679 17 28 C16.34 28.33 15.68 28.66 15 29 C14.79375 27.741875 14.5875 26.48375 14.375 25.1875 C12.37385812 16.28731652 7.5099153 9.02566774 1.3203125 2.4609375 C0 1 0 1 0 0 Z " fill="#E2E2E2" transform="translate(202,391)"/>
<path d="M0 0 C2.31666995 2.12471729 3.74958578 4.11627634 5.125 6.9375 C5.45757812 7.60652344 5.79015625 8.27554687 6.1328125 8.96484375 C7.6484109 12.52172107 8.15486273 15.70477492 8.1875 19.5625 C8.20167969 20.32691406 8.21585937 21.09132813 8.23046875 21.87890625 C8 24 8 24 6 27 C5.81824219 25.9378125 5.63648438 24.875625 5.44921875 23.78125 C4.17326518 16.54057721 2.81034792 9.82513067 0 3 C0 2.01 0 1.02 0 0 Z " fill="#F0F0F0" transform="translate(463,432)"/>
<path d="M0 0 C3.45201639 1.47721422 5.64961936 3.43794001 8.25 6.125 C8.95640625 6.84945313 9.6628125 7.57390625 10.390625 8.3203125 C11.18726563 9.15175781 11.18726563 9.15175781 12 10 C11.67 10.66 11.34 11.32 11 12 C10.34 12 9.68 12 9 12 C7.34375 10.13671875 7.34375 10.13671875 5.5 7.6875 C4.8915625 6.88699219 4.283125 6.08648437 3.65625 5.26171875 C2.39439121 3.53856725 1.18471531 1.77707297 0 0 Z " fill="#BDBDBD" transform="translate(202,391)"/>
<path d="M0 0 C2.61724095 2.36797991 4.32861729 4.89600354 6 8 C6 8.66 6 9.32 6 10 C5.01 10.33 4.02 10.66 3 11 C2.49384702 9.73160474 1.99530901 8.46016898 1.5 7.1875 C1.2215625 6.47980469 0.943125 5.77210938 0.65625 5.04296875 C0 3 0 3 0 0 Z " fill="#DFDFDF" transform="translate(463,432)"/>
<path d="M0 0 C0.66 0 1.32 0 2 0 C0.73058503 3.91402949 -0.51167694 5.79072873 -4 8 C-4.66 7.67 -5.32 7.34 -6 7 C-5.04882866 5.8274869 -4.08882991 4.66212985 -3.125 3.5 C-2.59132813 2.8503125 -2.05765625 2.200625 -1.5078125 1.53125 C-0.76144531 0.77328125 -0.76144531 0.77328125 0 0 Z " fill="#CCCCCC" transform="translate(460,473)"/>
</svg>
